# xmcd
#
# Track frame offsets:
#   150
#   19714
#   44408
#   66758
#   83244
#   113149
#   139958
#   165120
#   171449
#   198284
#   218170
#   245091
#   262904
#
# Disc length: 3751 seconds
#
# Revision: 0
# Processed by: cddbd v1.5PL3 Copyright (c) Steve Scherf et al.
# Submitted via: uFREEDB ActiveX Control 1.5
#
DISCID=b20ea50d
DTITLE=ANDRE  MADI - OS OLHOS MUSICAIS
DYEAR=1900
DGENRE=Pop
TTITLE0=JAZZ
TTITLE1=PRA ROUBAR O CEU
TTITLE2=BEBUM DE TI
TTITLE3=AMIGOS DO ROCK
TTITLE4=OS OLHOS MUSICAIS
TTITLE5=CANCAO DO UNIVERO
TTITLE6=DEPOIS DO CARNAVAL
TTITLE7=CARNAVAL NA RUA
TTITLE8=UM ANJO
TTITLE9=INQUISICAO NO CORCAO
TTITLE10=SUOR
TTITLE11=COMPLETAMENTE SEM ESTILO
TTITLE12=VESTE PURPURA
EXTD=
EXTT0=
EXTT1=
EXTT2=
EXTT3=
EXTT4=
EXTT5=
EXTT6=
EXTT7=
EXTT8=
EXTT9=
EXTT10=
EXTT11=
EXTT12=
PLAYORDER=
